<?xml version="1.0" encoding="UTF-8"?>
<!DOCTYPE svg PUBLIC "-//W3C//DTD SVG 1.1//EN" "http://www.w3.org/Graphics/SVG/1.1/DTD/svg11.dtd">
<svg xmlns="http://www.w3.org/2000/svg" version="1.1" width="1024px" height="315px" style="shape-rendering:geometricPrecision; text-rendering:geometricPrecision; image-rendering:optimizeQuality; fill-rule:evenodd; clip-rule:evenodd" xmlns:xlink="http://www.w3.org/1999/xlink">
<g><path style="opacity:1" fill="#fdfdfd" d="M -0.5,-0.5 C 340.833,-0.5 682.167,-0.5 1023.5,-0.5C 1023.5,104.5 1023.5,209.5 1023.5,314.5C 682.167,314.5 340.833,314.5 -0.5,314.5C -0.5,209.5 -0.5,104.5 -0.5,-0.5 Z"/></g>
<g><path style="opacity:1" fill="#131313" d="M 279.5,86.5 C 277.952,86.8212 277.285,87.8212 277.5,89.5C 241.9,69.6977 206.566,49.3643 171.5,28.5C 136.277,48.6062 101.277,68.9395 66.5,89.5C 66.5,88.5 66.5,87.5 66.5,86.5C 65.5,86.5 64.5,86.5 63.5,86.5C 99.2321,65.4499 135.232,44.7833 171.5,24.5C 207.819,44.6581 243.819,65.3248 279.5,86.5 Z"/></g>
<g><path style="opacity:1" fill="#f2f2f2" d="M 277.5,89.5 C 277.833,130.505 277.5,171.505 276.5,212.5C 274.604,213.275 272.937,214.275 271.5,215.5C 238.258,234.371 205.092,253.371 172,272.5C 136.375,252.274 100.875,231.941 65.5,211.5C 65.1681,170.663 65.5014,129.997 66.5,89.5C 101.277,68.9395 136.277,48.6062 171.5,28.5C 206.566,49.3643 241.9,69.6977 277.5,89.5 Z"/></g>
<g><path style="opacity:1" fill="#fbfbfb" d="M 255.5,95.5 C 257.482,96.562 259.315,97.8953 261,99.5C 261.5,133.832 261.667,168.165 261.5,202.5C 231.592,219.371 201.759,236.371 172,253.5C 142.056,237.026 112.389,220.026 83,202.5C 82.3333,168.167 82.3333,133.833 83,99.5C 112.417,81.7516 142.084,64.4183 172,47.5C 199.846,63.6667 227.679,79.6667 255.5,95.5 Z"/></g>
<g><path style="opacity:1" fill="#000000" d="M 62.5,86.5 C 62.8333,86.5 63.1667,86.5 63.5,86.5C 64.5,86.5 65.5,86.5 66.5,86.5C 66.5,87.5 66.5,88.5 66.5,89.5C 65.5014,129.997 65.1681,170.663 65.5,211.5C 65.189,212.478 64.5223,213.145 63.5,213.5C 62.5001,171.172 62.1667,128.839 62.5,86.5 Z"/></g>
<g><path style="opacity:1" fill="#030303" d="M 279.5,86.5 C 279.833,86.5 280.167,86.5 280.5,86.5C 281.494,129.094 281.828,171.761 281.5,214.5C 279.517,215.471 277.517,216.471 275.5,217.5C 273.517,217.843 272.183,217.176 271.5,215.5C 272.937,214.275 274.604,213.275 276.5,212.5C 277.5,171.505 277.833,130.505 277.5,89.5C 277.285,87.8212 277.952,86.8212 279.5,86.5 Z"/></g>
<g><path style="opacity:1" fill="#cacaca" d="M 280.5,86.5 C 281.833,107.489 282.5,128.823 282.5,150.5C 282.5,172.003 282.167,193.336 281.5,214.5C 281.828,171.761 281.494,129.094 280.5,86.5 Z"/></g>
<g><path style="opacity:1" fill="#121212" d="M 170.5,75.5 C 172.308,75.4914 173.975,75.9914 175.5,77C 195.703,89.396 216.203,101.229 237,112.5C 237.5,137.498 237.667,162.498 237.5,187.5C 236.167,187.5 234.833,187.5 233.5,187.5C 233.667,163.498 233.5,139.498 233,115.5C 212.945,103.307 192.611,91.6403 172,80.5C 152.054,91.8256 132.054,103.159 112,114.5C 111.333,138.5 111.333,162.5 112,186.5C 131.62,198.392 151.453,209.892 171.5,221C 172.93,222.88 172.596,224.38 170.5,225.5C 149.663,213.247 128.663,201.247 107.5,189.5C 106.167,163.833 106.167,138.167 107.5,112.5C 128.728,100.392 149.728,88.0591 170.5,75.5 Z"/></g>
<g><path style="opacity:1" fill="#020202" d="M 257.5,92.5 C 260.003,93.4538 262.336,94.7871 264.5,96.5C 265.5,131.827 265.833,167.16 265.5,202.5C 263.965,203.354 262.632,203.354 261.5,202.5C 261.667,168.165 261.5,133.832 261,99.5C 259.315,97.8953 257.482,96.562 255.5,95.5C 256.263,94.7321 257.263,94.2321 258.5,94C 257.5,93.6667 256.5,93.3333 255.5,93C 256.094,92.5357 256.761,92.369 257.5,92.5 Z"/></g>
<g><path style="opacity:1" fill="#070707" d="M 353.5,127.5 C 353.44,126.957 353.107,126.624 352.5,126.5C 351.502,135.475 351.168,144.475 351.5,153.5C 348.833,153.5 346.167,153.5 343.5,153.5C 343.5,139.167 343.5,124.833 343.5,110.5C 346.518,110.335 349.518,110.502 352.5,111C 359.058,119.298 365.724,127.465 372.5,135.5C 379.658,127.506 386.658,119.339 393.5,111C 396.482,110.502 399.482,110.335 402.5,110.5C 402.5,124.833 402.5,139.167 402.5,153.5C 399.167,153.5 395.833,153.5 392.5,153.5C 392.666,144.161 392.5,134.827 392,125.5C 385.951,132.548 380.284,139.881 375,147.5C 374.261,148.574 373.261,149.241 372,149.5C 366.022,142.021 359.856,134.688 353.5,127.5 Z"/></g>
<g><path style="opacity:1" fill="#0b0b0b" d="M 476.5,152.5 C 472.702,153.483 468.702,153.817 464.5,153.5C 463.18,150.86 461.847,148.193 460.5,145.5C 450.5,144.167 440.5,144.167 430.5,145.5C 429.294,148.079 427.961,150.579 426.5,153C 422.789,153.825 419.122,153.659 415.5,152.5C 423.674,138.815 431.841,125.148 440,111.5C 444,110.167 448,110.167 452,111.5C 460.178,125.194 468.345,138.861 476.5,152.5 Z"/></g>
<g><path style="opacity:1" fill="#3e3e3e" d="M 496.5,111.5 C 493.833,111.5 491.167,111.5 488.5,111.5C 488.5,125.5 488.5,139.5 488.5,153.5C 491.167,153.5 493.833,153.5 496.5,153.5C 493.713,154.477 490.713,154.81 487.5,154.5C 487.5,139.833 487.5,125.167 487.5,110.5C 490.713,110.19 493.713,110.523 496.5,111.5 Z"/></g>
<g><path style="opacity:1" fill="#2b2b2b" d="M 538.5,111.5 C 541.287,110.523 544.287,110.19 547.5,110.5C 547.829,125.01 547.496,139.343 546.5,153.5C 546.5,139.5 546.5,125.5 546.5,111.5C 543.728,112.371 541.062,112.371 538.5,111.5 Z"/></g>
<g><path style="opacity:1" fill="#0a0a0a" d="M 653.5,153.5 C 649.833,153.5 646.167,153.5 642.5,153.5C 642.828,141.655 642.495,129.988 641.5,118.5C 634.5,118.5 627.5,118.5 620.5,118.5C 620.5,115.833 620.5,113.167 620.5,110.5C 638.5,110.5 656.5,110.5 674.5,110.5C 674.5,113.167 674.5,115.833 674.5,118.5C 667.5,118.5 660.5,118.5 653.5,118.5C 653.5,130.167 653.5,141.833 653.5,153.5 Z"/></g>
<g><path style="opacity:1" fill="#090909" d="M 732.5,110.5 C 745.171,110.333 757.838,110.5 770.5,111C 775.435,112.691 777.435,116.191 776.5,121.5C 773.123,121.959 769.789,122.626 766.5,123.5C 766.5,121.833 766.5,120.167 766.5,118.5C 756.833,118.5 747.167,118.5 737.5,118.5C 737.5,121.5 737.5,124.5 737.5,127.5C 748.838,127.333 760.172,127.5 771.5,128C 773.492,128.574 774.992,129.741 776,131.5C 776.667,137.833 776.667,144.167 776,150.5C 775.097,151.701 773.931,152.535 772.5,153C 757.822,153.833 743.155,153.666 728.5,152.5C 726.478,149.103 725.478,145.436 725.5,141.5C 728.881,141.54 732.214,141.207 735.5,140.5C 735.5,142.167 735.5,143.833 735.5,145.5C 746.167,145.5 756.833,145.5 767.5,145.5C 767.5,142.5 767.5,139.5 767.5,136.5C 755.461,136.808 743.461,136.308 731.5,135C 728.488,131.645 727.155,127.645 727.5,123C 727.149,117.861 728.815,113.694 732.5,110.5 Z"/></g>
<g><path style="opacity:1" fill="#0b0b0b" d="M 797.5,153.5 C 793.958,153.813 790.625,153.479 787.5,152.5C 795.477,138.848 803.477,125.181 811.5,111.5C 815.5,110.167 819.5,110.167 823.5,111.5C 831.694,125.384 840.028,139.217 848.5,153C 844.5,153.667 840.5,153.667 836.5,153C 834.709,150.586 833.043,148.086 831.5,145.5C 821.833,144.167 812.167,144.167 802.5,145.5C 800.808,148.231 799.142,150.898 797.5,153.5 Z"/></g>
<g><path style="opacity:1" fill="#080808" d="M 859.5,110.5 C 874.833,110.5 890.167,110.5 905.5,110.5C 905.5,113.167 905.5,115.833 905.5,118.5C 893.833,118.5 882.167,118.5 870.5,118.5C 870.5,122.167 870.5,125.833 870.5,129.5C 876.833,129.5 883.167,129.5 889.5,129.5C 889.5,132.167 889.5,134.833 889.5,137.5C 883.167,137.5 876.833,137.5 870.5,137.5C 870.5,142.833 870.5,148.167 870.5,153.5C 866.833,153.5 863.167,153.5 859.5,153.5C 859.5,139.167 859.5,124.833 859.5,110.5 Z"/></g>
<g><path style="opacity:1" fill="#070707" d="M 962.5,145.5 C 962.5,148.167 962.5,150.833 962.5,153.5C 946.833,153.5 931.167,153.5 915.5,153.5C 915.5,139.167 915.5,124.833 915.5,110.5C 931.167,110.5 946.833,110.5 962.5,110.5C 962.5,113.167 962.5,115.833 962.5,118.5C 950.5,118.5 938.5,118.5 926.5,118.5C 926.5,121.5 926.5,124.5 926.5,127.5C 933.5,127.5 940.5,127.5 947.5,127.5C 947.5,130.167 947.5,132.833 947.5,135.5C 940.5,135.5 933.5,135.5 926.5,135.5C 926.5,138.833 926.5,142.167 926.5,145.5C 938.5,145.5 950.5,145.5 962.5,145.5 Z"/></g>
<g><path style="opacity:1" fill="#0a0a0a" d="M 571.5,153.5 C 567.629,153.815 563.962,153.482 560.5,152.5C 568.696,138.611 577.03,124.778 585.5,111C 590.236,109.782 594.403,110.616 598,113.5C 605.603,126.611 613.436,139.611 621.5,152.5C 617.541,153.66 613.541,153.827 609.5,153C 608.019,150.238 606.353,147.571 604.5,145C 594.816,144.168 585.149,144.335 575.5,145.5C 574.14,148.22 572.807,150.886 571.5,153.5 Z"/></g>
<g><path style="opacity:1" fill="#717171" d="M 641.5,118.5 C 642.495,129.988 642.828,141.655 642.5,153.5C 646.167,153.5 649.833,153.5 653.5,153.5C 649.702,154.483 645.702,154.817 641.5,154.5C 641.5,142.5 641.5,130.5 641.5,118.5 Z"/></g>
<g><path style="opacity:1" fill="#080808" d="M 496.5,111.5 C 503.478,119.48 510.478,127.48 517.5,135.5C 524.206,128.291 530.372,120.625 536,112.5C 536.671,111.748 537.504,111.414 538.5,111.5C 541.062,112.371 543.728,112.371 546.5,111.5C 546.5,125.5 546.5,139.5 546.5,153.5C 543.5,153.5 540.5,153.5 537.5,153.5C 537.832,144.143 537.498,134.81 536.5,125.5C 535.702,125.957 535.369,126.624 535.5,127.5C 529.198,134.643 523.031,141.976 517,149.5C 510.025,142.205 503.525,134.538 497.5,126.5C 496.502,135.475 496.168,144.475 496.5,153.5C 493.833,153.5 491.167,153.5 488.5,153.5C 488.5,139.5 488.5,125.5 488.5,111.5C 491.167,111.5 493.833,111.5 496.5,111.5 Z"/></g>
<g><path style="opacity:1" fill="#f2f2f2" d="M 589.5,119.5 C 593.309,124.433 596.642,129.766 599.5,135.5C 593.537,136.496 587.537,136.829 581.5,136.5C 583.89,130.719 586.557,125.052 589.5,119.5 Z"/></g>
<g><path style="opacity:1" fill="#f0f0f0" d="M 444.5,119.5 C 445.376,119.369 446.043,119.702 446.5,120.5C 449.268,125.776 452.268,130.943 455.5,136C 449.141,136.831 442.807,136.664 436.5,135.5C 439.193,130.114 441.86,124.78 444.5,119.5 Z"/></g>
<g><path style="opacity:1" fill="#f1f1f1" d="M 816.5,119.5 C 820.399,124.586 823.732,130.086 826.5,136C 820.167,136.667 813.833,136.667 807.5,136C 810.893,130.713 813.893,125.213 816.5,119.5 Z"/></g>
<g><path style="opacity:1" fill="#a1a1a1" d="M 537.5,153.5 C 536.833,144.833 536.167,136.167 535.5,127.5C 535.369,126.624 535.702,125.957 536.5,125.5C 537.498,134.81 537.832,144.143 537.5,153.5 Z"/></g>
<g><path style="opacity:1" fill="#636363" d="M 353.5,127.5 C 352.507,136.318 352.173,145.318 352.5,154.5C 349.287,154.81 346.287,154.477 343.5,153.5C 346.167,153.5 348.833,153.5 351.5,153.5C 351.168,144.475 351.502,135.475 352.5,126.5C 353.107,126.624 353.44,126.957 353.5,127.5 Z"/></g>
<g><path style="opacity:1" fill="#909090" d="M 476.5,152.5 C 477.043,152.56 477.376,152.893 477.5,153.5C 473.016,154.811 468.683,154.811 464.5,153.5C 468.702,153.817 472.702,153.483 476.5,152.5 Z"/></g>
<g><path style="opacity:1" fill="#959595" d="M 560.5,152.5 C 563.962,153.482 567.629,153.815 571.5,153.5C 567.649,154.809 563.649,154.809 559.5,153.5C 559.624,152.893 559.957,152.56 560.5,152.5 Z"/></g>
<g><path style="opacity:1" fill="#8d8d8d" d="M 787.5,152.5 C 790.625,153.479 793.958,153.813 797.5,153.5C 793.981,154.808 790.315,154.808 786.5,153.5C 786.624,152.893 786.957,152.56 787.5,152.5 Z"/></g>
<g><path style="opacity:1" fill="#8b8b8b" d="M 962.5,145.5 C 963.477,148.287 963.81,151.287 963.5,154.5C 947.325,154.83 931.325,154.496 915.5,153.5C 931.167,153.5 946.833,153.5 962.5,153.5C 962.5,150.833 962.5,148.167 962.5,145.5 Z"/></g>
<g><path style="opacity:1" fill="#717171" d="M 992.5,174.5 C 774.832,174.167 557.166,174.5 339.5,175.5C 557.166,176.5 774.832,176.833 992.5,176.5C 774.667,177.5 556.667,177.833 338.5,177.5C 338.5,176.167 338.5,174.833 338.5,173.5C 556.667,173.167 774.667,173.5 992.5,174.5 Z"/></g>
<g><path style="opacity:1" fill="#010101" d="M 992.5,174.5 C 992.5,175.167 992.5,175.833 992.5,176.5C 774.832,176.833 557.166,176.5 339.5,175.5C 557.166,174.5 774.832,174.167 992.5,174.5 Z"/></g>
<g><path style="opacity:1" fill="#030303" d="M 677.5,194.5 C 678.833,194.5 680.167,194.5 681.5,194.5C 681.5,195.833 681.5,197.167 681.5,198.5C 681.5,197.167 681.5,195.833 681.5,194.5C 680.167,194.5 678.833,194.5 677.5,194.5 Z"/></g>
<g><path style="opacity:1" fill="#1b1b1b" d="M 763.5,194.5 C 765.167,194.5 766.833,194.5 768.5,194.5C 768.5,196.167 768.5,197.833 768.5,199.5C 766.833,199.5 765.167,199.5 763.5,199.5C 763.5,197.833 763.5,196.167 763.5,194.5 Z"/></g>
<g><path style="opacity:1" fill="#0e0e0e" d="M 819.5,194.5 C 821.167,194.5 822.833,194.5 824.5,194.5C 824.5,205.5 824.5,216.5 824.5,227.5C 830.5,227.5 836.5,227.5 842.5,227.5C 842.5,228.833 842.5,230.167 842.5,231.5C 834.833,231.5 827.167,231.5 819.5,231.5C 819.5,219.167 819.5,206.833 819.5,194.5 Z"/></g>
<g><path style="opacity:1" fill="#050505" d="M 848.5,194.5 C 849.833,194.5 851.167,194.5 852.5,194.5C 852.5,195.833 852.5,197.167 852.5,198.5C 852.5,197.167 852.5,195.833 852.5,194.5C 851.167,194.5 849.833,194.5 848.5,194.5 Z"/></g>
<g><path style="opacity:1" fill="#1c1c1c" d="M 902.5,194.5 C 904.167,194.5 905.833,194.5 907.5,194.5C 907.5,196.167 907.5,197.833 907.5,199.5C 905.833,199.5 904.167,199.5 902.5,199.5C 902.5,197.833 902.5,196.167 902.5,194.5 Z"/></g>
<g><path style="opacity:1" fill="#141414" d="M 918.5,195.5 C 919.477,198.287 919.81,201.287 919.5,204.5C 920.833,204.5 922.167,204.5 923.5,204.5C 923.5,205.833 923.5,207.167 923.5,208.5C 922.167,208.5 920.833,208.5 919.5,208.5C 919.334,214.842 919.5,221.175 920,227.5C 921.356,228.38 922.856,228.714 924.5,228.5C 924.67,229.822 924.337,230.989 923.5,232C 920.743,232.782 918.243,232.282 916,230.5C 914.571,223.281 914.071,215.947 914.5,208.5C 913.5,208.5 912.5,208.5 911.5,208.5C 911.5,207.167 911.5,205.833 911.5,204.5C 912.5,204.5 913.5,204.5 914.5,204.5C 913.836,200.409 915.17,197.409 918.5,195.5 Z"/></g>
<g><path style="opacity:1" fill="#565656" d="M 677.5,194.5 C 677.5,195.833 677.5,197.167 677.5,198.5C 678.833,198.5 680.167,198.5 681.5,198.5C 680.081,199.451 678.415,199.784 676.5,199.5C 676.216,197.585 676.549,195.919 677.5,194.5 Z"/></g>
<g><path style="opacity:1" fill="#575757" d="M 848.5,194.5 C 848.5,195.833 848.5,197.167 848.5,198.5C 849.833,198.5 851.167,198.5 852.5,198.5C 851.081,199.451 849.415,199.784 847.5,199.5C 847.216,197.585 847.549,195.919 848.5,194.5 Z"/></g>
<g><path style="opacity:1" fill="#121212" d="M 639.5,194.5 C 641.604,194.201 643.604,194.534 645.5,195.5C 651.333,204.5 657.167,213.5 663,222.5C 663.5,213.173 663.666,203.839 663.5,194.5C 665.167,194.5 666.833,194.5 668.5,194.5C 668.5,206.833 668.5,219.167 668.5,231.5C 666.396,231.799 664.396,231.466 662.5,230.5C 657.125,221.22 651.292,212.22 645,203.5C 644.5,212.827 644.334,222.161 644.5,231.5C 642.833,231.5 641.167,231.5 639.5,231.5C 639.5,219.167 639.5,206.833 639.5,194.5 Z"/></g>
<g><path style="opacity:1" fill="#141414" d="M 391.5,204.5 C 395.846,204.334 400.179,204.501 404.5,205C 405.416,205.374 406.25,205.874 407,206.5C 408.165,214.79 408.998,223.123 409.5,231.5C 407.088,231.669 404.921,231.003 403,229.5C 396.359,233.946 390.359,233.279 385,227.5C 383.639,222.726 385.139,219.226 389.5,217C 394.238,216.481 398.905,215.648 403.5,214.5C 403.739,212.533 403.406,210.699 402.5,209C 399.167,208.333 395.833,208.333 392.5,209C 390.94,211.659 388.607,212.826 385.5,212.5C 386.345,208.985 388.345,206.319 391.5,204.5 Z"/></g>
<g><path style="opacity:1" fill="#151515" d="M 415.5,204.5 C 417.167,204.5 418.833,204.5 420.5,204.5C 420.351,205.552 420.517,206.552 421,207.5C 426.357,203.213 431.357,203.547 436,208.5C 440.121,204.185 444.955,203.351 450.5,206C 451.126,206.75 451.626,207.584 452,208.5C 452.5,216.159 452.666,223.826 452.5,231.5C 450.833,231.5 449.167,231.5 447.5,231.5C 447.666,224.159 447.5,216.826 447,209.5C 442.659,207.49 439.325,208.49 437,212.5C 436.5,218.825 436.334,225.158 436.5,231.5C 434.833,231.5 433.167,231.5 431.5,231.5C 431.831,224.137 431.497,216.803 430.5,209.5C 426.75,207.766 423.584,208.433 421,211.5C 420.5,218.158 420.334,224.825 420.5,231.5C 418.833,231.5 417.167,231.5 415.5,231.5C 415.5,222.5 415.5,213.5 415.5,204.5 Z"/></g>
<g><path style="opacity:1" fill="#0b0b0b" d="M 746.5,204.5 C 747.833,204.5 749.167,204.5 750.5,204.5C 750.459,208.243 751.126,208.41 752.5,205C 755.227,204.182 757.894,204.348 760.5,205.5C 759.902,206.795 759.402,208.128 759,209.5C 754.592,207.404 752.092,208.738 751.5,213.5C 750.51,219.31 750.177,225.31 750.5,231.5C 749.167,231.5 747.833,231.5 746.5,231.5C 746.5,222.5 746.5,213.5 746.5,204.5 Z"/></g>
<g><path style="opacity:1" fill="#141414" d="M 492.5,195.5 C 493.477,198.287 493.81,201.287 493.5,204.5C 494.833,204.5 496.167,204.5 497.5,204.5C 497.5,205.833 497.5,207.167 497.5,208.5C 496.167,208.5 494.833,208.5 493.5,208.5C 493.334,214.842 493.5,221.175 494,227.5C 495.356,228.38 496.856,228.714 498.5,228.5C 498.923,231.243 497.756,232.576 495,232.5C 492.201,232.368 490.201,231.035 489,228.5C 488.5,221.842 488.334,215.175 488.5,208.5C 487.5,208.5 486.5,208.5 485.5,208.5C 485.5,207.167 485.5,205.833 485.5,204.5C 486.5,204.5 487.5,204.5 488.5,204.5C 487.836,200.409 489.17,197.409 492.5,195.5 Z"/></g>
<g><path style="opacity:1" fill="#080808" d="M 591.5,208.5 C 589.833,208.5 588.167,208.5 586.5,208.5C 586.5,216.167 586.5,223.833 586.5,231.5C 585.167,231.5 583.833,231.5 582.5,231.5C 582.5,223.833 582.5,216.167 582.5,208.5C 581.167,208.5 579.833,208.5 578.5,208.5C 578.5,207.167 578.5,205.833 578.5,204.5C 579.833,204.5 581.167,204.5 582.5,204.5C 581.818,195.346 585.818,192.179 594.5,195C 592.752,196.87 590.585,198.037 588,198.5C 587.505,200.473 587.338,202.473 587.5,204.5C 588.833,204.5 590.167,204.5 591.5,204.5C 591.5,205.833 591.5,207.167 591.5,208.5 Z"/></g>
<g><path style="opacity:1" fill="#161616" d="M 676.5,204.5 C 678.167,204.5 679.833,204.5 681.5,204.5C 681.5,213.5 681.5,222.5 681.5,231.5C 679.833,231.5 678.167,231.5 676.5,231.5C 676.5,222.5 676.5,213.5 676.5,204.5 Z"/></g>
<g><path style="opacity:1" fill="#151515" d="M 693.5,204.5 C 697.839,203.846 701.673,204.846 705,207.5C 705.483,206.552 705.649,205.552 705.5,204.5C 707.167,204.5 708.833,204.5 710.5,204.5C 710.903,215.231 710.403,225.898 709,236.5C 706.389,240.632 702.556,242.632 697.5,242.5C 692.048,243 688.715,240.667 687.5,235.5C 687.833,234.833 688.167,234.167 688.5,233.5C 690.968,234.803 693.301,236.303 695.5,238C 702.667,238.833 705.833,235.667 705,228.5C 693.844,234.332 687.678,230.832 686.5,218C 686.371,212.087 688.705,207.587 693.5,204.5 Z"/></g>
<g><path style="opacity:1" fill="#101010" d="M 763.5,204.5 C 765.167,204.5 766.833,204.5 768.5,204.5C 768.5,213.5 768.5,222.5 768.5,231.5C 766.833,231.5 765.167,231.5 763.5,231.5C 763.5,222.5 763.5,213.5 763.5,204.5 Z"/></g>
<g><path style="opacity:1" fill="#181818" d="M 847.5,204.5 C 849.167,204.5 850.833,204.5 852.5,204.5C 852.5,213.5 852.5,222.5 852.5,231.5C 850.833,231.5 849.167,231.5 847.5,231.5C 847.5,222.5 847.5,213.5 847.5,204.5 Z"/></g>
<g><path style="opacity:1" fill="#141414" d="M 859.5,204.5 C 861.167,204.5 862.833,204.5 864.5,204.5C 864.351,205.552 864.517,206.552 865,207.5C 870.402,203.221 875.402,203.554 880,208.5C 884.2,204.286 889.034,203.452 894.5,206C 895.191,207.067 895.691,208.234 896,209.5C 896.5,216.826 896.666,224.159 896.5,231.5C 894.833,231.5 893.167,231.5 891.5,231.5C 891.666,224.159 891.5,216.826 891,209.5C 887.156,207.762 883.823,208.429 881,211.5C 880.5,218.158 880.334,224.825 880.5,231.5C 878.833,231.5 877.167,231.5 875.5,231.5C 875.831,224.137 875.497,216.803 874.5,209.5C 870.779,207.757 867.612,208.424 865,211.5C 864.5,218.158 864.334,224.825 864.5,231.5C 862.833,231.5 861.167,231.5 859.5,231.5C 859.5,222.5 859.5,213.5 859.5,204.5 Z"/></g>
<g><path style="opacity:1" fill="#141414" d="M 902.5,204.5 C 904.167,204.5 905.833,204.5 907.5,204.5C 907.5,213.5 907.5,222.5 907.5,231.5C 905.833,231.5 904.167,231.5 902.5,231.5C 902.5,222.5 902.5,213.5 902.5,204.5 Z"/></g>
<g><path style="opacity:1" fill="#0f0f0f" d="M 975.5,194.5 C 976.833,194.5 978.167,194.5 979.5,194.5C 979.5,206.833 979.5,219.167 979.5,231.5C 978.167,231.5 976.833,231.5 975.5,231.5C 975.649,230.448 975.483,229.448 975,228.5C 968.211,234.424 962.544,233.424 958,225.5C 955.17,217.658 956.67,210.825 962.5,205C 965.5,204.333 968.5,204.333 971.5,205C 972.646,205.645 973.646,206.478 974.5,207.5C 975.492,203.217 975.826,198.884 975.5,194.5 Z"/></g>
<g><path style="opacity:1" fill="#111111" d="M 526.5,193.5 C 533.012,192.844 538.512,194.844 543,199.5C 545.46,203.8 544.294,205.133 539.5,203.5C 535.994,197.567 530.994,196.067 524.5,199C 521.833,202 521.833,205 524.5,208C 530.876,209.256 536.876,211.423 542.5,214.5C 546.678,223.467 544.011,229.3 534.5,232C 524.059,233.962 518.059,229.796 516.5,219.5C 519.86,218.79 521.693,220.124 522,223.5C 528.082,230.078 534.082,230.078 540,223.5C 540.746,220.211 539.58,217.711 536.5,216C 530.881,215.211 525.548,213.544 520.5,211C 515.029,202.561 517.029,196.728 526.5,193.5 Z"/></g>
<g><path style="opacity:1" fill="#151515" d="M 723.5,204.5 C 735.179,202.851 740.846,207.851 740.5,219.5C 733.833,219.5 727.167,219.5 720.5,219.5C 721.39,225.887 725.056,228.72 731.5,228C 733.699,226.454 735.866,224.954 738,223.5C 738.833,223.833 739.667,224.167 740.5,224.5C 737.083,230.924 731.75,233.424 724.5,232C 717.144,228.48 714.311,222.646 716,214.5C 716.48,209.535 718.98,206.202 723.5,204.5 Z"/></g>
<g><path style="opacity:1" fill="#efefef" d="M 735.5,213.5 C 730.695,214.487 725.695,214.821 720.5,214.5C 721.078,210.088 723.578,208.088 728,208.5C 732.181,207.83 734.681,209.497 735.5,213.5 Z"/></g>
<g><path style="opacity:1" fill="#f3f3f3" d="M 694.5,208.5 C 703.593,208.106 707.093,212.439 705,221.5C 701.622,228.509 697.288,229.176 692,223.5C 690.776,218.043 691.609,213.043 694.5,208.5 Z"/></g>
<g><path style="opacity:1" fill="#f0f0f0" d="M 964.5,208.5 C 970.007,207.105 973.507,209.105 975,214.5C 976.581,220.062 975.081,224.562 970.5,228C 966.507,228.753 963.674,227.253 962,223.5C 960.776,218.043 961.609,213.043 964.5,208.5 Z"/></g>
<g><path style="opacity:1" fill="#545454" d="M 735.5,213.5 C 736.043,213.56 736.376,213.893 736.5,214.5C 731.014,215.815 725.68,215.815 720.5,214.5C 725.695,214.821 730.695,214.487 735.5,213.5 Z"/></g>
<g><path style="opacity:1" fill="#a6a6a6" d="M 746.5,204.5 C 746.5,213.5 746.5,222.5 746.5,231.5C 747.833,231.5 749.167,231.5 750.5,231.5C 750.177,225.31 750.51,219.31 751.5,213.5C 751.5,219.833 751.5,226.167 751.5,232.5C 749.5,232.5 747.5,232.5 745.5,232.5C 745.173,222.985 745.506,213.652 746.5,204.5 Z"/></g>
<g><path style="opacity:1" fill="#0b0b0b" d="M 374.5,231.5 C 374.832,221.145 374.499,210.812 373.5,200.5C 372.702,200.957 372.369,201.624 372.5,202.5C 369.81,211.927 366.81,221.26 363.5,230.5C 360.233,231.992 358.066,230.992 357,227.5C 354.191,219.574 351.691,211.574 349.5,203.5C 349.539,202.244 349.039,201.244 348,200.5C 347.5,210.828 347.334,221.161 347.5,231.5C 346.167,231.5 344.833,231.5 343.5,231.5C 343.5,219.167 343.5,206.833 343.5,194.5C 346.972,193.963 349.805,194.963 352,197.5C 355,207.167 358,216.833 361,226.5C 364.173,215.803 367.34,205.136 370.5,194.5C 373.167,194.5 375.833,194.5 378.5,194.5C 378.5,206.833 378.5,219.167 378.5,231.5C 377.167,231.5 375.833,231.5 374.5,231.5 Z"/></g>
<g><path style="opacity:1" fill="#959595" d="M 349.5,203.5 C 348.833,212.833 348.167,222.167 347.5,231.5C 347.334,221.161 347.5,210.828 348,200.5C 349.039,201.244 349.539,202.244 349.5,203.5 Z"/></g>
<g><path style="opacity:1" fill="#545454" d="M 374.5,231.5 C 373.833,221.833 373.167,212.167 372.5,202.5C 372.369,201.624 372.702,200.957 373.5,200.5C 374.499,210.812 374.832,221.145 374.5,231.5 Z"/></g>
<g><path style="opacity:1" fill="#656565" d="M 591.5,208.5 C 590.432,209.434 589.099,209.768 587.5,209.5C 587.825,217.019 587.492,224.352 586.5,231.5C 586.5,223.833 586.5,216.167 586.5,208.5C 588.167,208.5 589.833,208.5 591.5,208.5 Z"/></g>
<g><path style="opacity:1" fill="#686868" d="M 618.5,214.5 C 619.451,215.919 619.784,217.585 619.5,219.5C 612.5,219.5 605.5,219.5 598.5,219.5C 604.979,218.509 611.646,218.176 618.5,218.5C 618.5,217.167 618.5,215.833 618.5,214.5 Z"/></g>
<g><path style="opacity:1" fill="#696969" d="M 951.5,214.5 C 952.451,215.919 952.784,217.585 952.5,219.5C 945.416,218.874 938.75,219.541 932.5,221.5C 931.596,220.791 931.263,219.791 931.5,218.5C 938.167,218.5 944.833,218.5 951.5,218.5C 951.5,217.167 951.5,215.833 951.5,214.5 Z"/></g>
<g><path style="opacity:1" fill="#eeeeee" d="M 402.5,218.5 C 404.547,222.903 403.213,226.07 398.5,228C 395.044,229.123 392.21,228.29 390,225.5C 389.289,223.633 389.789,222.133 391.5,221C 395.347,220.367 399.014,219.533 402.5,218.5 Z"/></g>
<g><path style="opacity:1" fill="#101010" d="M 557.5,204.5 C 561.514,204.334 565.514,204.501 569.5,205C 570.931,205.465 572.097,206.299 573,207.5C 574.401,215.415 574.901,223.415 574.5,231.5C 572.019,231.677 570.186,230.677 569,228.5C 562.508,234.162 556.508,233.828 551,227.5C 549.973,223.82 550.806,220.653 553.5,218C 558.752,216.513 564.086,215.346 569.5,214.5C 569.822,212.278 569.155,210.444 567.5,209C 562.785,207.621 558.785,208.621 555.5,212C 554.207,212.49 552.873,212.657 551.5,212.5C 551.642,208.367 553.642,205.7 557.5,204.5 Z"/></g>
<g><path style="opacity:1" fill="#e9e9e9" d="M 568.5,218.5 C 570.288,224.592 567.788,227.925 561,228.5C 555.975,228.322 554.475,225.989 556.5,221.5C 560.627,220.489 564.627,219.489 568.5,218.5 Z"/></g>
<g><path style="opacity:1" fill="#131313" d="M 780.5,204.5 C 784.514,204.334 788.514,204.501 792.5,205C 793.931,205.465 795.097,206.299 796,207.5C 797.435,215.389 797.935,223.389 797.5,231.5C 795.019,231.677 793.186,230.677 792,228.5C 785.508,234.162 779.508,233.828 774,227.5C 772.973,223.82 773.806,220.653 776.5,218C 781.754,216.513 787.087,215.346 792.5,214.5C 793.035,211.762 792.035,209.928 789.5,209C 784.248,207.541 780.248,209.041 777.5,213.5C 774.077,212.271 773.577,210.271 776,207.5C 777.652,206.601 779.152,205.601 780.5,204.5 Z"/></g>
<g><path style="opacity:1" fill="#ededed" d="M 791.5,218.5 C 793.237,224.612 790.737,227.946 784,228.5C 778.975,228.322 777.475,225.989 779.5,221.5C 783.627,220.489 787.627,219.489 791.5,218.5 Z"/></g>
<g><path style="opacity:1" fill="#111111" d="M 951.5,214.5 C 951.5,215.833 951.5,217.167 951.5,218.5C 944.833,218.5 938.167,218.5 931.5,218.5C 931.263,219.791 931.596,220.791 932.5,221.5C 933.179,225.676 935.679,228.01 940,228.5C 942.558,227.804 944.725,226.471 946.5,224.5C 948.045,223.548 949.712,223.215 951.5,223.5C 951.102,228.4 948.435,231.233 943.5,232C 932.969,233.235 927.302,228.568 926.5,218C 928.934,204.783 936.267,201.116 948.5,207C 950.202,209.235 951.202,211.735 951.5,214.5 Z"/></g>
<g><path style="opacity:1" fill="#5a5a5a" d="M 932.5,212.5 C 937.056,214.442 942.056,215.108 947.5,214.5C 942.36,215.488 937.026,215.821 931.5,215.5C 931.263,214.209 931.596,213.209 932.5,212.5 Z"/></g>
<g><path style="opacity:1" fill="#f6f6f6" d="M 947.5,214.5 C 942.056,215.108 937.056,214.442 932.5,212.5C 932.944,210.887 933.944,209.72 935.5,209C 941.517,207.033 945.517,208.866 947.5,214.5 Z"/></g>
<g><path style="opacity:1" fill="#161616" d="M 464.5,204.5 C 468.514,204.334 472.514,204.501 476.5,205C 478.815,206.109 480.315,207.943 481,210.5C 481.5,217.492 481.666,224.492 481.5,231.5C 478.951,231.559 476.951,230.559 475.5,228.5C 468.531,234.307 462.365,233.641 457,226.5C 456.441,222.447 457.941,219.28 461.5,217C 466.54,216.322 471.54,215.489 476.5,214.5C 476.634,209.635 474.301,207.635 469.5,208.5C 465.142,207.541 462.809,209.208 462.5,213.5C 458.134,213.669 456.967,212.003 459,208.5C 460.812,207.023 462.645,205.69 464.5,204.5 Z"/></g>
<g><path style="opacity:1" fill="#ebebeb" d="M 472.5,218.5 C 473.833,218.5 475.167,218.5 476.5,218.5C 476.311,224.356 473.311,227.689 467.5,228.5C 463.665,228.171 461.832,226.171 462,222.5C 465.479,221.011 468.979,219.677 472.5,218.5 Z"/></g>
<g><path style="opacity:1" fill="#151515" d="M 618.5,214.5 C 618.5,215.833 618.5,217.167 618.5,218.5C 611.646,218.176 604.979,218.509 598.5,219.5C 599.441,225.947 603.107,228.78 609.5,228C 611.699,226.454 613.866,224.954 616,223.5C 616.833,223.833 617.667,224.167 618.5,224.5C 615.696,230.982 610.696,233.482 603.5,232C 597.146,229.812 593.813,225.312 593.5,218.5C 595.826,204.588 603.326,200.921 616,207.5C 617.411,209.65 618.245,211.984 618.5,214.5 Z"/></g>
<g><path style="opacity:1" fill="#f1f1f1" d="M 602.5,208.5 C 606.257,208.071 609.757,208.737 613,210.5C 613.309,211.766 613.809,212.933 614.5,214C 609.136,214.829 603.802,214.663 598.5,213.5C 599.612,211.581 600.946,209.914 602.5,208.5 Z"/></g>
<g><path style="opacity:1" fill="#111111" d="M 257.5,92.5 C 256.761,92.369 256.094,92.5357 255.5,93C 256.5,93.3333 257.5,93.6667 258.5,94C 257.263,94.2321 256.263,94.7321 255.5,95.5C 227.679,79.6667 199.846,63.6667 172,47.5C 142.084,64.4183 112.417,81.7516 83,99.5C 82.3333,133.833 82.3333,168.167 83,202.5C 112.389,220.026 142.056,237.026 172,253.5C 201.759,236.371 231.592,219.371 261.5,202.5C 262.632,203.354 263.965,203.354 265.5,202.5C 265.439,204.592 264.439,206.092 262.5,207C 232.195,224.065 202.028,241.232 172,258.5C 141.101,240.967 110.268,223.3 79.5,205.5C 78.3334,169.171 78.1668,132.838 79,96.5C 110,78.5 141,60.5 172,42.5C 200.481,59.3194 228.981,75.986 257.5,92.5 Z"/></g>
<g><path style="opacity:1" fill="#191919" d="M 62.5,86.5 C 62.1667,128.839 62.5001,171.172 63.5,213.5C 64.5223,213.145 65.189,212.478 65.5,211.5C 100.875,231.941 136.375,252.274 172,272.5C 205.092,253.371 238.258,234.371 271.5,215.5C 272.183,217.176 273.517,217.843 275.5,217.5C 241.151,237.804 206.484,257.804 171.5,277.5C 135.167,256.667 98.8333,235.833 62.5,215C 61.1677,172.069 61.1677,129.236 62.5,86.5 Z"/></g>
</svg>
